<svg width="140" height="62" viewBox="0 0 140 62" fill="none" xmlns="http://www.w3.org/2000/svg">
<path d="M46.5515 27.4348C46.3927 28.3354 45.0413 32.9495 44.663 34.2785C44.663 34.4336 44.7913 34.5618 44.9467 34.5618H48.1056C48.2643 34.5618 48.3893 34.4336 48.386 34.2346C48.0447 32.9765 46.8184 28.4265 46.6596 27.4348H46.5515ZM41.9433 18.1594C41.9433 17.8457 41.69 17.5927 41.3791 17.5927H31.7304C31.4872 17.5927 31.2777 17.7479 31.2 17.9638L26.7405 30.2748L22.683 17.8997C22.5884 17.7175 22.3992 17.5927 22.1796 17.5927H12.2336C11.9194 17.5927 11.666 17.8457 11.666 18.1594C11.666 18.2201 11.6762 18.2774 11.6964 18.3483L20.7945 44.0497C20.8823 44.2487 21.0816 44.3938 21.3148 44.3938H31.5682C31.8081 44.3938 32.0176 44.2386 32.0953 44.0261L41.9096 18.3483C41.9298 18.2909 41.9433 18.2268 41.9433 18.1594ZM38.923 20.1427L30.5311 42.0935C30.4905 42.198 30.3689 42.2756 30.2507 42.2756H22.629C22.504 42.2756 22.3925 42.198 22.3553 42.0867L14.5816 20.1427C14.5748 20.1022 14.5681 20.0684 14.5681 20.0347C14.5681 19.8796 14.6965 19.7548 14.8485 19.7548H20.8114C20.933 19.7548 21.0343 19.8256 21.0715 19.9302L25.1999 32.5178C25.6493 34.1435 26.4364 35.9683 26.5378 36.7946H26.727C26.8216 35.9683 27.7743 33.9243 28.2844 32.2648L32.7507 19.9403C32.7912 19.8323 32.8892 19.7548 33.0108 19.7548H38.6595C38.8183 19.7548 38.9433 19.8796 38.9433 20.0347C38.9433 20.0718 38.9366 20.1089 38.923 20.1427ZM96.1668 26.8412H94.2546C94.0992 26.8412 93.9742 26.9694 93.9742 27.1245V30.7673C93.9742 30.9258 94.0992 31.0506 94.2546 31.0506H96.1398C96.8155 31.0506 98.4608 31.0506 98.4608 28.8616C98.4608 27.762 97.8966 26.8412 96.1668 26.8412ZM128.289 43.6416L120.454 21.2658C120.373 21.0365 120.157 20.9083 119.931 20.9083H111.039C110.795 20.9083 110.586 21.0635 110.498 21.2928L104.68 37.1488L103.373 34.5483C105.194 33.0136 105.883 30.8044 105.883 28.4973C105.883 24.9389 104.164 22.8342 102.015 21.8021C101.032 21.3299 100.035 21.1174 99.2277 21.0162C98.4473 20.915 97.7648 20.9117 97.3391 20.9117H68.6362C68.349 20.9117 68.1125 21.1275 68.0753 21.4041L68.0855 28.6693C68.0855 28.9695 68.322 29.2157 68.6226 29.2326H72.5247C72.67 29.2427 72.7781 29.3675 72.7781 29.5126V35.7861C72.7781 35.9447 72.6531 36.0661 72.4842 36.0728L67.2578 36.0695C67.1024 36.0695 66.9774 35.948 66.974 35.776V21.4783C66.974 21.1646 66.7206 20.9117 66.4098 20.9117H57.4232C57.1293 20.9117 56.886 21.1377 56.8624 21.4277V35.8671L51.7373 21.2355C51.6495 21.0432 51.4536 20.915 51.2272 20.915H42.3352C42.1055 20.915 41.9062 21.0567 41.8082 21.2692L33.5953 43.6382C33.575 43.6989 33.5649 43.763 33.5649 43.8372C33.5649 44.1475 33.8183 44.4039 34.1291 44.4039H43.3623C43.6156 44.4039 43.8285 44.2352 43.9129 43.9789L44.9907 40.6465C45.0312 40.5419 45.1326 40.4677 45.2744 40.4643L47.7643 40.4677C47.8792 40.4677 47.9772 40.5352 48.0211 40.633L49.0279 44.0464C49.1089 44.2555 49.315 44.4073 49.5549 44.4073H82.3322C82.6431 44.4073 82.8964 44.1509 82.9032 43.8136V29.526C82.9032 29.3709 83.0282 29.2461 83.2005 29.2427H86.1161C86.2715 29.2427 86.3965 29.3709 86.3965 29.5227L86.3998 43.8372C86.3998 44.1475 86.6498 44.4039 86.964 44.4039H95.6736C95.9844 44.4039 96.2412 44.1475 96.2412 43.8372C96.231 43.3212 96.2074 42.5151 96.1466 41.6179L97.2074 44.07C97.2952 44.2622 97.4945 44.4005 97.7209 44.4005H112.076C112.316 44.4005 112.525 44.2454 112.606 44.0329L113.701 40.633C113.745 40.5352 113.843 40.4643 113.985 40.461L116.471 40.4643C116.596 40.4643 116.704 40.5453 116.741 40.66L117.728 43.989C117.795 44.2251 118.012 44.3971 118.268 44.3971H127.768C128.079 44.3971 128.333 44.1408 128.333 43.8305C128.323 43.763 128.312 43.6989 128.289 43.6416ZM56.4164 42.2756H50.9367C50.8083 42.2756 50.6934 42.1946 50.6563 42.0766L49.6562 38.6868C49.5718 38.4845 49.3691 38.3394 49.136 38.3394H43.9028C43.6325 38.3394 43.4231 38.4979 43.3454 38.7172L42.2609 42.0766C42.2271 42.1946 42.119 42.2756 41.9906 42.2756H36.771C36.6122 42.2756 36.4872 42.1508 36.4872 41.9923C36.4872 41.9653 36.4906 41.9383 36.5007 41.9113L43.3488 23.2525C43.3893 23.1445 43.494 23.0703 43.6156 23.0703H49.886C50.011 23.0703 50.1123 23.1513 50.1529 23.2558L56.68 41.8945C56.6935 41.9316 56.6969 41.9653 56.6969 41.9956C56.6969 42.1508 56.5718 42.2756 56.4164 42.2756ZM71.4267 42.2756H59.2712C59.1124 42.2756 58.9874 42.1508 58.9874 41.9923V23.3165C59.0043 23.1749 59.1226 23.0636 59.2712 23.0636H64.5314C64.6902 23.0636 64.8186 23.1917 64.8186 23.3469L64.8219 37.7019C64.8422 37.992 65.0888 38.2247 65.3827 38.2247H71.4369C71.599 38.2247 71.7071 38.363 71.7071 38.5047L71.7105 41.9855C71.7071 42.1508 71.5821 42.2756 71.4267 42.2756ZM85.4438 26.8648C85.4235 27.0065 85.3052 27.1144 85.16 27.1144L81.3052 27.1178C80.9944 27.1178 80.741 27.3674 80.741 27.6777V41.9788C80.7376 42.1508 80.6126 42.2756 80.4572 42.2756H75.1937C75.0382 42.2756 74.9099 42.1508 74.9099 41.9923V27.6372C74.9099 27.3472 74.6464 27.1178 74.349 27.1178L70.4977 27.1144C70.3423 27.1144 70.2139 26.9863 70.2139 26.8311L70.2105 23.3705C70.2139 23.1917 70.3423 23.067 70.4977 23.067H85.1633C85.3086 23.067 85.4269 23.1783 85.4471 23.3165V26.8648H85.4438ZM104.376 42.2756H98.927C98.802 42.2756 98.6939 42.198 98.6533 42.0935L95.6229 35.0879C95.5689 34.9766 95.4709 34.9092 95.3594 34.9092H94.3796C94.2107 34.9092 94.0824 35.0374 94.0824 35.1891L94.079 41.9889C94.079 42.1474 93.9506 42.2722 93.7952 42.2722H88.7985C88.6431 42.2722 88.5181 42.1474 88.5181 41.9889V23.3773C88.5249 23.1951 88.6465 23.0703 88.8053 23.0703L97.3223 23.067C98.7817 23.067 103.724 23.067 103.724 28.5142C103.724 30.8212 102.927 32.6561 100.826 33.6612C100.731 33.7051 100.663 33.8029 100.663 33.9176C100.663 33.9614 100.677 34.0052 100.694 34.039L104.626 41.8708C104.643 41.9079 104.657 41.9484 104.657 41.9923C104.66 42.1508 104.535 42.2756 104.376 42.2756ZM125.123 42.2756H119.64C119.512 42.2756 119.397 42.1946 119.363 42.0766L118.363 38.6868C118.279 38.4845 118.076 38.3394 117.839 38.3394H112.606C112.336 38.3394 112.126 38.4979 112.049 38.7172L110.964 42.0766C110.927 42.1946 110.822 42.2756 110.694 42.2756H105.474C105.319 42.2756 105.191 42.1508 105.191 41.9923C105.191 41.9653 105.194 41.9383 105.204 41.9113L112.052 23.2525C112.093 23.1445 112.197 23.0703 112.319 23.0703H118.593C118.718 23.0703 118.819 23.1513 118.86 23.2558L125.387 41.8911C125.4 41.9282 125.407 41.9619 125.407 41.9923C125.407 42.1508 125.279 42.2756 125.123 42.2756ZM115.255 27.4348C115.096 28.3354 113.745 32.9495 113.366 34.2785C113.366 34.4336 113.491 34.5618 113.647 34.5618H116.806C116.964 34.5618 117.089 34.4336 117.086 34.2346C116.748 32.9765 115.522 28.4265 115.363 27.4348H115.255Z" fill="#1A1A1A"/>
</svg>
