<svg width="140" height="60" viewBox="0 0 140 60" fill="none" xmlns="http://www.w3.org/2000/svg">
<mask id="mask0_6510_77271" style="mask-type:luminance" maskUnits="userSpaceOnUse" x="10" y="16" width="120" height="31">
<path d="M10 46.736H130V16.564H10V46.736Z" fill="white"/>
</mask>
<g mask="url(#mask0_6510_77271)">
<path d="M114.853 30.9682V30.7267H115.004C115.085 30.7267 115.197 30.7344 115.197 30.8379C115.197 30.949 115.14 30.9682 115.043 30.9682H114.853ZM114.853 31.1387H114.955L115.187 31.5613H115.441L115.184 31.1215C115.317 31.1109 115.426 31.0448 115.426 30.8599C115.426 30.6299 115.273 30.5552 115.013 30.5552H114.638V31.5613H114.853V31.1387ZM115.944 31.0592C115.944 30.469 115.502 30.126 115.008 30.126C114.512 30.126 114.07 30.469 114.07 31.0592C114.07 31.6504 114.512 31.9934 115.008 31.9934C115.502 31.9934 115.944 31.6504 115.944 31.0592ZM115.675 31.0592C115.675 31.4894 115.369 31.7778 115.008 31.7778V31.7759C114.638 31.7778 114.34 31.4894 114.34 31.0592C114.34 30.6299 114.638 30.3435 115.008 30.3435C115.369 30.3435 115.675 30.6299 115.675 31.0592Z" fill="#2A2A2A"/>
<path d="M31.0547 34.1351C29.0589 34.3564 17.9751 35.763 15.9343 35.054C14.3926 34.5174 14.911 32.9873 17.8199 30.7663C18.7617 30.0477 20.1903 28.941 21.6438 28.0873C22.9977 27.292 26.9069 24.5671 30.9781 22.0893C34.5069 19.9412 37.9783 18.2165 39.5257 18.7463C41.0779 19.2791 35.6222 24.157 35.6222 24.157C35.6222 24.157 33.7136 25.5473 35.7995 25.9746C36.4376 26.1068 37.3076 26.5313 38.9125 24.6619C40.5174 22.7926 43.6055 20.1213 41.9642 17.3714C39.6838 13.5503 22.9335 24.3333 18.2836 27.5028C15.7714 29.217 7.0053 34.2645 11.0506 36.9616C14.7653 39.4394 30.0065 36.8227 30.0065 36.8227C30.0065 36.8227 30.9053 36.7489 31.4696 36.0677C32.1518 35.2456 33.0505 33.9138 31.0547 34.1351Z" fill="#2A2A2A"/>
<path d="M110.004 35.7546C107.501 36.0478 113.801 31.8234 113.172 30.8154C112.997 30.5356 110.3 29.9167 108.945 30.4743C107.52 31.0607 103.189 35.3043 102.64 35.6377C101.322 36.4387 100.761 35.4538 100.761 35.4538C100.761 35.4538 103.022 34.2877 104.401 32.9741C105.47 31.9556 105.901 30.641 104.436 29.9234C103.045 29.2392 101.613 30.1485 100.272 31.2293C98.3825 32.7518 96.882 35.0284 96.7239 35.2593C96.4537 35.6569 96.0455 35.8878 95.1957 35.6847C94.3448 35.4806 96.1222 33.1849 96.1222 33.1849C96.332 32.5813 95.9152 32.1012 95.692 31.9307C95.1966 31.5522 94.4502 32.1673 94.4502 32.1673C92.3327 34.7725 87.9042 35.2813 87.9042 35.2813C86.5963 34.1699 91.8019 32.0801 93.3225 32.0552C93.9472 32.0447 94.2107 31.9048 94.2308 31.74C94.3554 31.4497 93.7067 31.1795 93.7067 31.1795C89.4928 29.8553 85.2137 34.4985 84.7174 35.2899C84.2201 36.0823 83.7679 35.6109 83.7679 35.6109C82.7206 34.4966 85.8729 32.1271 86.1402 30.7675C86.4459 29.2143 79.483 31.2552 78.8392 32.0869C78.8114 32.1242 79.0663 30.6448 78.2422 30.5912C76.9411 30.5069 75.7942 31.8234 75.7942 31.8234C72.8096 34.464 71.7882 35.2123 71.7882 35.2123C70.3673 35.4701 70.0108 34.7927 70.0108 34.7927C71.6358 34.1239 72.7128 33.1303 73.4324 32.4778C75.1637 30.9074 74.609 29.6215 73.5464 29.0553C72.4819 28.4881 70.7036 29.5631 69.6592 30.596C68.2239 32.016 67.511 34.0022 67.3405 34.3586C66.9543 35.1654 65.0706 35.4835 65.0706 35.4835C61.6031 35.7153 64.4823 33.3162 64.4823 33.3162C64.4823 33.3162 77.6022 22.8388 76.8855 20.0602C76.4371 18.3298 72.3707 21.4361 70.2877 23.4463C67.8627 25.7909 62.5929 32.4088 62.5929 32.4088C60.5376 34.2293 59.5028 34.4707 59.5028 34.4707C57.8414 34.7994 59.6504 32.3925 59.6504 32.3925C59.6504 32.3925 72.9236 20.3879 71.0102 19.1941C69.7339 18.3969 67.7352 19.8542 65.9751 21.4332C63.5951 23.568 58.2247 30.5423 58.2247 30.5423C58.2247 30.5423 54.279 34.7907 53.6936 34.4525C53.1072 34.1124 56.1963 30.1418 56.1963 30.1418C56.9216 29.2354 56.5125 28.4507 56.249 28.1144C55.4604 27.1074 52.6234 28.7286 52.0332 29.1204C49.6426 30.7138 46.3552 34.1804 45.557 34.8473C44.7599 35.5151 43.1837 35.1357 43.9675 34.0894C46.2488 31.0444 46.931 28.8225 45.9681 27.8356C45.0052 26.8496 40.6906 31.7046 40.3917 31.4478C40.0937 31.191 51.2743 20.5077 48.6586 18.9823C47.3229 18.2043 43.728 23.2403 40.1867 27.9975C36.791 32.5592 33.5898 36.5365 33.1931 37.0807C32.5627 37.9469 34.2299 38.6597 35.2829 37.807C36.15 37.1037 37.4234 35.8035 37.9475 35.1041C38.9037 33.8249 42.2045 31.4267 42.5983 31.237C43.017 31.0358 43.1847 31.26 43.1713 31.4602C43.1626 31.5944 43.0735 31.718 43.0735 31.718C41.0566 34.3644 40.3189 36.5461 40.3189 36.5461C40.1081 40.0174 44.8039 36.9217 45.7688 36.3688C46.0304 39.913 48.7371 37.4745 50.3075 36.2069C50.7042 40.6575 54.6748 36.3975 56.0257 35.0667C54.6566 41.7593 60.6402 35.609 60.5453 35.6895L60.8605 35.8591C61.5284 40.3767 66.1677 37.0654 67.0741 36.5834C67.0741 36.5834 67.3223 38.059 68.8975 38.1596C73.0424 38.425 76.6105 32.7873 77.0494 32.9971C77.493 33.2088 76.4994 35.1366 75.5067 36.0747C74.2803 37.2321 76.7313 37.052 77.3109 37.0865C77.8897 37.12 80.8149 33.3296 80.9663 33.2021C81.1186 33.0757 82.139 32.7719 81.8602 33.32C81.5795 33.8671 80.5811 36.3171 80.5811 36.3171C79.9324 38.3483 81.4281 38.3847 82.5625 38.0139C83.6069 37.6738 84.6647 36.9466 84.6647 36.9466C86.3414 39.4435 90.6541 35.976 91.4484 35.4404C92.2436 34.9048 91.9188 35.5199 91.9188 35.5199C89.968 37.8175 81.8094 45.3083 81.8094 45.3083C81.3485 46.1975 82.4188 46.872 83.1077 46.712L84.0908 45.8611L93.0925 36.8699C92.3768 37.6661 94.6438 39.341 96.9385 36.6505C96.9385 36.6505 96.3176 37.945 99.4374 38.1605C103.684 38.4537 107.119 33.5634 107.588 33.3813C108.056 33.1983 108.659 33.4666 108.659 33.4666C108.659 33.4666 103.655 38.1605 106.405 38.1605C108.928 38.1605 129.354 37.2867 129.671 37.2254C130.044 37.1516 130.139 36.5671 129.776 36.5758C124.129 36.7042 110.129 35.7403 110.004 35.7546ZM71.0111 31.4219C71.8466 30.5921 72.5605 29.8783 72.9725 30.1533C73.2283 30.3229 72.6476 31.0645 71.8945 31.8416C70.9604 32.8045 69.3823 34.1517 69.1964 33.8192C69.0393 33.5337 70.259 32.1683 71.0111 31.4219ZM71.723 23.5115C72.9408 22.4374 74.4154 21.142 74.9778 21.5271C75.1973 21.6776 74.0197 23.041 73.0041 23.9752C71.5017 25.3568 67.5714 29.1798 67.3338 28.7353C67.1287 28.3539 70.6327 24.4734 71.723 23.5115ZM66.0029 22.9634C67.1795 21.85 68.5727 20.5853 69.1734 20.8804C69.7751 21.1745 61.8426 29.2766 61.3885 28.4718C61.1729 28.0914 64.9489 23.9608 66.0029 22.9634ZM49.1261 34.7572C48.8933 34.3462 49.611 33.2539 50.7512 32.176C52.0226 30.9725 53.7492 29.475 54.0797 29.7154C54.487 30.0106 53.6649 31.1862 52.4662 32.4481C51.145 33.8412 49.382 35.2133 49.1261 34.7572ZM100.054 33.7847C99.9145 33.4963 100.552 32.8332 101.365 32.1491C102.271 31.3845 103.046 30.7292 103.444 31.0243C103.692 31.2073 103.053 31.8981 102.234 32.6129C101.22 33.5001 100.22 34.1229 100.054 33.7847Z" fill="#2A2A2A"/>
</g>
</svg>
